<?xml version="1.0" standalone="no"?>
<!DOCTYPE svg PUBLIC "-//W3C//DTD SVG 20010904//EN"
 "http://www.w3.org/TR/2001/REC-SVG-20010904/DTD/svg10.dtd">
<svg version="1.0" xmlns="http://www.w3.org/2000/svg"
 width="500.000000pt" height="500.000000pt" viewBox="0 0 500.000000 500.000000"
 preserveAspectRatio="xMidYMid meet">
<metadata>
Created by potrace 1.14, written by Peter Selinger 2001-2017
</metadata>
<g transform="translate(0.000000,500.000000) scale(0.100000,-0.100000)"
fill="#000000" stroke="none">
<path d="M2427 4655 c-1 -1 -60 -5 -132 -9 -301 -14 -610 -89 -835 -202 -91
-45 -234 -133 -274 -168 -16 -15 -32 -26 -35 -26 -16 0 -205 -198 -260 -272
-34 -46 -66 -88 -71 -95 -6 -7 -10 -14 -10 -17 0 -2 -19 -35 -42 -72 -43 -72
-108 -205 -151 -309 -23 -55 -42 -115 -96 -300 -39 -135 -74 -319 -117 -625
-3 -19 -7 -62 -10 -95 -2 -33 -7 -79 -9 -101 -3 -23 -8 -88 -10 -145 -3 -57
-8 -135 -10 -172 -8 -114 -18 -586 -18 -857 -1 -250 -1 -256 23 -297 53 -96
194 -98 252 -5 22 36 23 46 25 312 3 551 17 942 38 1130 2 19 7 69 10 110 4
41 8 77 10 80 1 3 6 41 10 85 3 43 8 82 10 85 1 3 6 25 9 50 6 47 8 55 31 170
67 331 168 594 309 805 171 258 378 418 675 525 61 21 111 37 111 35 0 -2 19
3 42 11 24 8 61 17 83 20 22 2 47 7 55 9 92 27 500 47 650 31 122 -13 157 -18
205 -26 28 -5 66 -12 85 -15 200 -33 465 -149 615 -268 92 -74 219 -211 284
-307 65 -97 171 -296 171 -322 0 -8 4 -18 9 -23 16 -19 95 -268 115 -366 20
-96 48 -240 52 -268 3 -18 8 -43 10 -55 2 -11 7 -48 10 -81 3 -33 7 -62 9 -65
3 -5 8 -53 20 -185 4 -42 16 -208 20 -275 7 -107 17 -579 19 -865 2 -250 5
-295 20 -325 23 -48 60 -72 116 -78 60 -6 107 16 140 65 l25 37 -1 260 c-1
283 -12 830 -19 911 -2 28 -6 97 -10 155 -3 58 -7 117 -9 130 -3 14 -7 54 -10
90 -21 239 -79 555 -142 775 -35 121 -130 370 -167 435 -11 19 -32 58 -47 85
-37 68 -137 222 -147 226 -4 2 -26 27 -48 54 -164 205 -426 383 -708 479 -59
21 -116 39 -125 41 -9 2 -43 10 -75 19 -32 8 -77 18 -100 21 -23 4 -44 8 -48
11 -23 14 -517 50 -532 39z"/>
<path d="M2378 3905 c-2 -1 -33 -5 -70 -9 -36 -3 -72 -8 -80 -11 -7 -2 -26 -6
-43 -8 -97 -15 -250 -70 -354 -129 -194 -110 -376 -309 -491 -538 -88 -175
-175 -431 -206 -610 -3 -14 -11 -56 -19 -95 -7 -38 -16 -90 -20 -115 -3 -25
-8 -63 -12 -85 -3 -22 -7 -51 -8 -65 -11 -103 -17 -154 -24 -215 -5 -38 -9
-77 -9 -85 0 -8 -3 -55 -6 -105 -14 -187 -16 -251 -22 -670 -3 -236 -7 -441
-8 -455 l-1 -25 -330 0 -330 0 0 -150 0 -150 425 1 c471 0 464 -1 511 66 27
37 25 0 34 688 3 256 7 488 9 515 2 28 7 95 10 150 4 55 9 116 11 135 2 19 7
64 10 100 12 120 21 198 32 265 3 22 7 49 9 60 26 174 60 315 110 464 90 268
182 415 365 584 46 43 220 136 274 146 6 1 28 6 50 12 22 6 49 12 60 14 11 1
36 6 55 9 83 17 262 13 390 -8 415 -67 698 -413 825 -1011 50 -235 59 -301 90
-615 2 -25 7 -92 10 -150 4 -58 8 -121 10 -140 4 -41 15 -586 19 -935 3 -259
8 -290 59 -316 12 -7 25 -17 29 -23 5 -7 143 -11 440 -11 l433 0 0 150 0 150
-330 0 -330 0 -1 160 c-2 217 -14 757 -19 825 -2 30 -6 100 -10 155 -3 55 -8
123 -10 150 -7 83 -26 260 -30 284 -2 9 -6 41 -10 71 -26 215 -109 546 -182
725 -35 85 -123 259 -134 263 -5 2 -9 8 -9 14 0 21 -73 116 -170 221 -140 152
-392 288 -598 323 -15 3 -54 9 -87 15 -51 9 -309 20 -317 14z"/>
</g>
</svg>
